<mxfile host="app.diagrams.net" modified="2024-06-28T09:33:41.056Z" agent="Mozilla/5.0 (Macintosh; Intel Mac OS X 10_15_7) AppleWebKit/537.36 (KHTML, like Gecko) Chrome/125.0.0.0 Safari/537.36" etag="S623SBymesBVQkkdhq7_" version="24.5.4" type="github">
  <diagram name="Page-1" id="c7488fd3-1785-93aa-aadb-54a6760d102a">
    <mxGraphModel dx="1194" dy="689" grid="1" gridSize="10" guides="1" tooltips="1" connect="1" arrows="1" fold="1" page="1" pageScale="1" pageWidth="1100" pageHeight="850" background="none" math="0" shadow="0">
      <root>
        <mxCell id="0" />
        <mxCell id="1" parent="0" />
        <mxCell id="ffWWxnEGxaDHrsxdAcYm-20" style="edgeStyle=orthogonalEdgeStyle;rounded=0;orthogonalLoop=1;jettySize=auto;html=1;exitX=0.5;exitY=1;exitDx=0;exitDy=0;entryX=1;entryY=0.5;entryDx=0;entryDy=0;" edge="1" parent="1" source="ffWWxnEGxaDHrsxdAcYm-4" target="ffWWxnEGxaDHrsxdAcYm-22">
          <mxGeometry relative="1" as="geometry">
            <mxPoint x="370" y="550" as="sourcePoint" />
            <mxPoint x="310" y="590" as="targetPoint" />
            <Array as="points">
              <mxPoint x="310" y="595" />
            </Array>
          </mxGeometry>
        </mxCell>
        <mxCell id="ffWWxnEGxaDHrsxdAcYm-21" value="FALSE" style="edgeLabel;html=1;align=center;verticalAlign=middle;resizable=0;points=[];" vertex="1" connectable="0" parent="ffWWxnEGxaDHrsxdAcYm-20">
          <mxGeometry x="-0.1478" y="-2" relative="1" as="geometry">
            <mxPoint x="-16" y="2" as="offset" />
          </mxGeometry>
        </mxCell>
        <mxCell id="ffWWxnEGxaDHrsxdAcYm-4" value="Đếm số lần đăng nhập fail &amp;lt; 5" style="rhombus;whiteSpace=wrap;html=1;strokeColor=default;" vertex="1" parent="1">
          <mxGeometry x="247.5" y="440" width="125" height="80" as="geometry" />
        </mxCell>
        <mxCell id="ffWWxnEGxaDHrsxdAcYm-31" style="edgeStyle=orthogonalEdgeStyle;rounded=0;orthogonalLoop=1;jettySize=auto;html=1;entryX=0;entryY=0.5;entryDx=0;entryDy=0;exitX=1;exitY=0.5;exitDx=0;exitDy=0;" edge="1" parent="1" source="ffWWxnEGxaDHrsxdAcYm-106">
          <mxGeometry relative="1" as="geometry">
            <mxPoint x="370" y="230" as="sourcePoint" />
            <mxPoint x="430" y="230" as="targetPoint" />
          </mxGeometry>
        </mxCell>
        <mxCell id="ffWWxnEGxaDHrsxdAcYm-14" value="" style="edgeStyle=orthogonalEdgeStyle;rounded=0;orthogonalLoop=1;jettySize=auto;html=1;" edge="1" parent="1">
          <mxGeometry relative="1" as="geometry">
            <mxPoint x="310" y="260" as="sourcePoint" />
            <mxPoint x="310" y="310" as="targetPoint" />
          </mxGeometry>
        </mxCell>
        <mxCell id="ffWWxnEGxaDHrsxdAcYm-17" style="edgeStyle=orthogonalEdgeStyle;rounded=0;orthogonalLoop=1;jettySize=auto;html=1;entryX=0.5;entryY=0;entryDx=0;entryDy=0;" edge="1" parent="1" target="ffWWxnEGxaDHrsxdAcYm-4">
          <mxGeometry relative="1" as="geometry">
            <mxPoint x="310" y="390" as="sourcePoint" />
          </mxGeometry>
        </mxCell>
        <mxCell id="ffWWxnEGxaDHrsxdAcYm-22" value="Chặn, không cho đăng nhập nữa + thông báo bị khoá tài khoản trong vòng ... phút" style="whiteSpace=wrap;html=1;aspect=fixed;fillColor=#f8cecc;strokeColor=#b85450;" vertex="1" parent="1">
          <mxGeometry x="80" y="540" width="110" height="110" as="geometry" />
        </mxCell>
        <mxCell id="ffWWxnEGxaDHrsxdAcYm-32" style="edgeStyle=orthogonalEdgeStyle;rounded=0;orthogonalLoop=1;jettySize=auto;html=1;" edge="1" parent="1">
          <mxGeometry relative="1" as="geometry">
            <mxPoint x="590" y="230" as="targetPoint" />
            <mxPoint x="510" y="230" as="sourcePoint" />
          </mxGeometry>
        </mxCell>
        <mxCell id="ffWWxnEGxaDHrsxdAcYm-73" style="edgeStyle=orthogonalEdgeStyle;rounded=0;orthogonalLoop=1;jettySize=auto;html=1;entryX=0;entryY=0.5;entryDx=0;entryDy=0;" edge="1" parent="1" source="ffWWxnEGxaDHrsxdAcYm-33" target="ffWWxnEGxaDHrsxdAcYm-70">
          <mxGeometry relative="1" as="geometry" />
        </mxCell>
        <mxCell id="ffWWxnEGxaDHrsxdAcYm-33" value="Email" style="rounded=0;whiteSpace=wrap;html=1;fillColor=#dae8fc;strokeColor=#6c8ebf;" vertex="1" parent="1">
          <mxGeometry x="590" y="200" width="120" height="60" as="geometry" />
        </mxCell>
        <mxCell id="ffWWxnEGxaDHrsxdAcYm-83" style="edgeStyle=orthogonalEdgeStyle;rounded=0;orthogonalLoop=1;jettySize=auto;html=1;entryX=0;entryY=0.5;entryDx=0;entryDy=0;" edge="1" parent="1" source="ffWWxnEGxaDHrsxdAcYm-38" target="ffWWxnEGxaDHrsxdAcYm-81">
          <mxGeometry relative="1" as="geometry" />
        </mxCell>
        <mxCell id="ffWWxnEGxaDHrsxdAcYm-38" value="2FA" style="rounded=0;whiteSpace=wrap;html=1;fillColor=#dae8fc;strokeColor=#6c8ebf;" vertex="1" parent="1">
          <mxGeometry x="590" y="470" width="120" height="70" as="geometry" />
        </mxCell>
        <mxCell id="ffWWxnEGxaDHrsxdAcYm-99" style="edgeStyle=orthogonalEdgeStyle;rounded=0;orthogonalLoop=1;jettySize=auto;html=1;entryX=0.5;entryY=0;entryDx=0;entryDy=0;" edge="1" parent="1" source="ffWWxnEGxaDHrsxdAcYm-54" target="ffWWxnEGxaDHrsxdAcYm-38">
          <mxGeometry relative="1" as="geometry" />
        </mxCell>
        <mxCell id="ffWWxnEGxaDHrsxdAcYm-100" value="TRUE" style="edgeLabel;html=1;align=center;verticalAlign=middle;resizable=0;points=[];" vertex="1" connectable="0" parent="ffWWxnEGxaDHrsxdAcYm-99">
          <mxGeometry x="-0.0714" y="2" relative="1" as="geometry">
            <mxPoint as="offset" />
          </mxGeometry>
        </mxCell>
        <mxCell id="ffWWxnEGxaDHrsxdAcYm-101" style="edgeStyle=orthogonalEdgeStyle;rounded=0;orthogonalLoop=1;jettySize=auto;html=1;" edge="1" parent="1" source="ffWWxnEGxaDHrsxdAcYm-54">
          <mxGeometry relative="1" as="geometry">
            <mxPoint x="780" y="360" as="targetPoint" />
          </mxGeometry>
        </mxCell>
        <mxCell id="ffWWxnEGxaDHrsxdAcYm-105" value="FALSE" style="edgeLabel;html=1;align=center;verticalAlign=middle;resizable=0;points=[];" vertex="1" connectable="0" parent="ffWWxnEGxaDHrsxdAcYm-101">
          <mxGeometry x="-0.0111" relative="1" as="geometry">
            <mxPoint y="-1" as="offset" />
          </mxGeometry>
        </mxCell>
        <mxCell id="ffWWxnEGxaDHrsxdAcYm-54" value="KIỂM TRA ĐÃ CÓ EMAIL CHƯA" style="rhombus;whiteSpace=wrap;html=1;" vertex="1" parent="1">
          <mxGeometry x="565" y="320" width="170" height="80" as="geometry" />
        </mxCell>
        <mxCell id="ffWWxnEGxaDHrsxdAcYm-59" value="ĐĂNG NHẬP THÀNH CÔNG" style="rounded=0;whiteSpace=wrap;html=1;fillColor=#d5e8d4;strokeColor=#82b366;" vertex="1" parent="1">
          <mxGeometry x="970" y="475" width="120" height="60" as="geometry" />
        </mxCell>
        <mxCell id="ffWWxnEGxaDHrsxdAcYm-69" value="Hợp Lệ" style="rounded=0;whiteSpace=wrap;html=1;" vertex="1" parent="1">
          <mxGeometry x="430" y="200" width="80" height="60" as="geometry" />
        </mxCell>
        <mxCell id="ffWWxnEGxaDHrsxdAcYm-74" style="edgeStyle=orthogonalEdgeStyle;rounded=0;orthogonalLoop=1;jettySize=auto;html=1;entryX=0.5;entryY=0;entryDx=0;entryDy=0;" edge="1" parent="1" source="ffWWxnEGxaDHrsxdAcYm-70" target="ffWWxnEGxaDHrsxdAcYm-59">
          <mxGeometry relative="1" as="geometry">
            <mxPoint x="1000" y="470" as="targetPoint" />
            <Array as="points">
              <mxPoint x="1030" y="230" />
            </Array>
          </mxGeometry>
        </mxCell>
        <mxCell id="ffWWxnEGxaDHrsxdAcYm-75" value="Nhập đúng" style="edgeLabel;html=1;align=center;verticalAlign=middle;resizable=0;points=[];" vertex="1" connectable="0" parent="ffWWxnEGxaDHrsxdAcYm-74">
          <mxGeometry x="0.0499" relative="1" as="geometry">
            <mxPoint as="offset" />
          </mxGeometry>
        </mxCell>
        <mxCell id="ffWWxnEGxaDHrsxdAcYm-98" style="edgeStyle=orthogonalEdgeStyle;rounded=0;orthogonalLoop=1;jettySize=auto;html=1;entryX=0.5;entryY=0;entryDx=0;entryDy=0;" edge="1" parent="1" source="ffWWxnEGxaDHrsxdAcYm-70" target="ffWWxnEGxaDHrsxdAcYm-54">
          <mxGeometry relative="1" as="geometry">
            <Array as="points">
              <mxPoint x="830" y="280" />
              <mxPoint x="650" y="280" />
            </Array>
          </mxGeometry>
        </mxCell>
        <mxCell id="ffWWxnEGxaDHrsxdAcYm-103" value="Nhập sai OTP quá N lần" style="edgeLabel;html=1;align=center;verticalAlign=middle;resizable=0;points=[];" vertex="1" connectable="0" parent="ffWWxnEGxaDHrsxdAcYm-98">
          <mxGeometry x="-0.2043" y="1" relative="1" as="geometry">
            <mxPoint x="1" as="offset" />
          </mxGeometry>
        </mxCell>
        <mxCell id="ffWWxnEGxaDHrsxdAcYm-70" value="Nhập OTP Email" style="ellipse;whiteSpace=wrap;html=1;" vertex="1" parent="1">
          <mxGeometry x="770" y="190" width="120" height="80" as="geometry" />
        </mxCell>
        <mxCell id="ffWWxnEGxaDHrsxdAcYm-84" value="Nhập đúng" style="edgeStyle=orthogonalEdgeStyle;rounded=0;orthogonalLoop=1;jettySize=auto;html=1;entryX=0;entryY=0.5;entryDx=0;entryDy=0;" edge="1" parent="1" source="ffWWxnEGxaDHrsxdAcYm-81" target="ffWWxnEGxaDHrsxdAcYm-59">
          <mxGeometry x="0.0909" y="5" relative="1" as="geometry">
            <mxPoint as="offset" />
          </mxGeometry>
        </mxCell>
        <mxCell id="ffWWxnEGxaDHrsxdAcYm-96" style="edgeStyle=orthogonalEdgeStyle;rounded=0;orthogonalLoop=1;jettySize=auto;html=1;entryX=1;entryY=0.5;entryDx=0;entryDy=0;" edge="1" parent="1" source="ffWWxnEGxaDHrsxdAcYm-81" target="ffWWxnEGxaDHrsxdAcYm-85">
          <mxGeometry relative="1" as="geometry">
            <Array as="points">
              <mxPoint x="830" y="590" />
              <mxPoint x="520" y="590" />
              <mxPoint x="520" y="350" />
            </Array>
          </mxGeometry>
        </mxCell>
        <mxCell id="ffWWxnEGxaDHrsxdAcYm-97" value="Nhập sai OTP quá N lần" style="edgeLabel;html=1;align=center;verticalAlign=middle;resizable=0;points=[];" vertex="1" connectable="0" parent="ffWWxnEGxaDHrsxdAcYm-96">
          <mxGeometry x="-0.4039" y="-1" relative="1" as="geometry">
            <mxPoint x="1" as="offset" />
          </mxGeometry>
        </mxCell>
        <mxCell id="ffWWxnEGxaDHrsxdAcYm-81" value="Nhập OTP 2FA" style="ellipse;whiteSpace=wrap;html=1;" vertex="1" parent="1">
          <mxGeometry x="770" y="465" width="120" height="80" as="geometry" />
        </mxCell>
        <mxCell id="ffWWxnEGxaDHrsxdAcYm-85" value="Thất Bại" style="rounded=0;whiteSpace=wrap;html=1;" vertex="1" parent="1">
          <mxGeometry x="265" y="310" width="90" height="80" as="geometry" />
        </mxCell>
        <mxCell id="ffWWxnEGxaDHrsxdAcYm-87" value="" style="edgeStyle=orthogonalEdgeStyle;rounded=0;orthogonalLoop=1;jettySize=auto;html=1;entryX=0;entryY=0.5;entryDx=0;entryDy=0;" edge="1" parent="1" source="ffWWxnEGxaDHrsxdAcYm-4" target="ffWWxnEGxaDHrsxdAcYm-86">
          <mxGeometry relative="1" as="geometry">
            <mxPoint x="248" y="480" as="sourcePoint" />
            <mxPoint x="250" y="230" as="targetPoint" />
            <Array as="points">
              <mxPoint x="190" y="480" />
            </Array>
          </mxGeometry>
        </mxCell>
        <mxCell id="ffWWxnEGxaDHrsxdAcYm-88" value="TRUE" style="edgeLabel;html=1;align=center;verticalAlign=middle;resizable=0;points=[];" vertex="1" connectable="0" parent="ffWWxnEGxaDHrsxdAcYm-87">
          <mxGeometry x="-0.0133" y="-4" relative="1" as="geometry">
            <mxPoint x="-4" as="offset" />
          </mxGeometry>
        </mxCell>
        <mxCell id="ffWWxnEGxaDHrsxdAcYm-111" style="edgeStyle=orthogonalEdgeStyle;rounded=0;orthogonalLoop=1;jettySize=auto;html=1;" edge="1" parent="1" source="ffWWxnEGxaDHrsxdAcYm-86">
          <mxGeometry relative="1" as="geometry">
            <mxPoint x="190" y="120" as="targetPoint" />
          </mxGeometry>
        </mxCell>
        <mxCell id="ffWWxnEGxaDHrsxdAcYm-86" value="số lần đăng nhập fail + 1" style="ellipse;whiteSpace=wrap;html=1;aspect=fixed;" vertex="1" parent="1">
          <mxGeometry x="150" y="320" width="80" height="80" as="geometry" />
        </mxCell>
        <mxCell id="ffWWxnEGxaDHrsxdAcYm-102" value="Show Popup bổ sung email" style="ellipse;whiteSpace=wrap;html=1;" vertex="1" parent="1">
          <mxGeometry x="780" y="320" width="110" height="80" as="geometry" />
        </mxCell>
        <mxCell id="ffWWxnEGxaDHrsxdAcYm-106" value="Kiểm tra đăng nhập" style="rhombus;whiteSpace=wrap;html=1;" vertex="1" parent="1">
          <mxGeometry x="260" y="190" width="100" height="80" as="geometry" />
        </mxCell>
        <mxCell id="ffWWxnEGxaDHrsxdAcYm-108" style="edgeStyle=orthogonalEdgeStyle;rounded=0;orthogonalLoop=1;jettySize=auto;html=1;entryX=0.5;entryY=0;entryDx=0;entryDy=0;" edge="1" parent="1" source="ffWWxnEGxaDHrsxdAcYm-107" target="ffWWxnEGxaDHrsxdAcYm-106">
          <mxGeometry relative="1" as="geometry" />
        </mxCell>
        <mxCell id="ffWWxnEGxaDHrsxdAcYm-107" value="Form Đăng Nhập" style="rounded=0;whiteSpace=wrap;html=1;" vertex="1" parent="1">
          <mxGeometry x="250" y="90" width="120" height="60" as="geometry" />
        </mxCell>
        <mxCell id="ffWWxnEGxaDHrsxdAcYm-110" style="edgeStyle=orthogonalEdgeStyle;rounded=0;orthogonalLoop=1;jettySize=auto;html=1;entryX=0;entryY=0.5;entryDx=0;entryDy=0;" edge="1" parent="1" source="ffWWxnEGxaDHrsxdAcYm-109" target="ffWWxnEGxaDHrsxdAcYm-107">
          <mxGeometry relative="1" as="geometry" />
        </mxCell>
        <mxCell id="ffWWxnEGxaDHrsxdAcYm-109" value="Actor" style="shape=umlActor;verticalLabelPosition=bottom;verticalAlign=top;html=1;outlineConnect=0;" vertex="1" parent="1">
          <mxGeometry x="110" y="90" width="40" height="60" as="geometry" />
        </mxCell>
      </root>
    </mxGraphModel>
  </diagram>
</mxfile>
